<svg viewBox="0 0 85 85" fill="none" xmlns="http://www.w3.org/2000/svg">
  <path fill-rule="evenodd" clip-rule="evenodd" d="M42.5 0C19.028 0 0 19.028 0 42.5a42.322 42.322 0 0 0 9.346 26.593c3.559-.552 6.764-1.667 9.617-3.344 4.012-2.15 7.889-5.53 11.63-10.144l-4.316-5.725c-2.415-3.55-3.813-7.129-4.194-10.736-.198-3.655.469-6.811 2.002-9.467 2.334-4.042 5.595-6.623 9.784-7.746 4.256-1.238 8.52-.624 12.792 1.843 4.388 2.533 7.01 6.126 7.866 10.777 1.038 4.602-.11 9.79-3.443 15.563-3.667 6.351-8.262 11.242-13.784 14.674-5.474 3.614-11.083 5.996-16.826 7.144-2.639.574-5.166.927-7.58 1.059C20.546 80.424 30.988 85 42.5 85 65.972 85 85 65.972 85 42.5S65.972 0 42.5 0Z" fill="#40C057"/>
</svg>
