<svg viewBox="0 0 540 138" fill="none" xmlns="http://www.w3.org/2000/svg">
    <g clipPath="url(#a)" fill="#40C057">
      <path d="M148.43 95v-.65l1.17-.455c.867-.347 1.452-.78 1.755-1.3.347-.52.52-1.213.52-2.08v-33.93c0-.91-.173-1.625-.52-2.145-.303-.52-.888-.932-1.755-1.235l-1.17-.455v-.65h18.655c5.287 0 9.1.975 11.44 2.925 2.34 1.907 3.51 4.333 3.51 7.28 0 2.21-.867 4.225-2.6 6.045-1.69 1.777-4.615 3.033-8.775 3.77 4.767.52 8.255 1.777 10.465 3.77 2.21 1.95 3.315 4.333 3.315 7.15 0 1.387-.303 2.795-.91 4.225-.607 1.387-1.647 2.665-3.12 3.835-1.43 1.17-3.402 2.123-5.915 2.86-2.513.693-5.698 1.04-9.555 1.04h-16.51Zm13.065-22.945h2.795c2.903 0 4.983-.672 6.24-2.015 1.3-1.343 1.95-3.683 1.95-7.02 0-3.467-.585-5.937-1.755-7.41-1.17-1.473-3.077-2.21-5.72-2.21h-3.51v18.655Zm0 21.645h3.25c3.25 0 5.655-.867 7.215-2.6 1.603-1.733 2.405-4.442 2.405-8.125 0-3.467-.758-5.937-2.275-7.41-1.517-1.473-4.008-2.21-7.475-2.21h-3.12V93.7Zm42.349-30.94c2.816 0 5.221.585 7.215 1.755 1.993 1.127 3.51 2.687 4.55 4.68 1.083 1.95 1.625 4.182 1.625 6.695 0 .477-.022.975-.065 1.495-.044.477-.13.91-.26 1.3h-19.37c.043 4.68.866 8.06 2.47 10.14 1.646 2.037 4.073 3.055 7.28 3.055 2.166 0 3.921-.347 5.265-1.04 1.343-.693 2.6-1.712 3.77-3.055l.65.585c-1.344 2.383-3.142 4.247-5.395 5.59-2.21 1.343-4.875 2.015-7.995 2.015-3.077 0-5.807-.65-8.19-1.95-2.384-1.343-4.247-3.25-5.59-5.72-1.344-2.47-2.015-5.417-2.015-8.84 0-3.553.78-6.565 2.34-9.035 1.56-2.513 3.553-4.42 5.98-5.72 2.47-1.3 5.048-1.95 7.735-1.95Zm-.195 1.3c-1.257 0-2.34.39-3.25 1.17-.867.737-1.56 2.08-2.08 4.03-.477 1.907-.737 4.615-.78 8.125h11.115c.433-4.723.26-8.125-.52-10.205s-2.275-3.12-4.485-3.12Zm28.069 31.915c-2.123 0-4.03-.26-5.72-.78a25.024 25.024 0 0 1-4.68-1.82l.065-7.735h.65l2.21 3.9c.953 1.733 1.993 3.033 3.12 3.9 1.17.823 2.643 1.235 4.42 1.235 2.08 0 3.748-.455 5.005-1.365 1.3-.953 1.95-2.21 1.95-3.77 0-1.43-.455-2.6-1.365-3.51-.91-.91-2.6-1.733-5.07-2.47l-2.73-.845c-2.643-.78-4.723-1.993-6.24-3.64-1.517-1.647-2.275-3.662-2.275-6.045 0-2.86 1.127-5.287 3.38-7.28 2.253-1.993 5.482-2.99 9.685-2.99 1.69 0 3.272.195 4.745.585 1.517.347 2.968.888 4.355 1.625l-.39 7.02h-.65l-2.275-4.03c-.823-1.43-1.647-2.427-2.47-2.99-.78-.607-1.972-.91-3.575-.91-1.473 0-2.86.412-4.16 1.235-1.3.823-1.95 1.993-1.95 3.51 0 1.473.542 2.643 1.625 3.51 1.127.867 2.773 1.668 4.94 2.405l2.925.845c3.12.953 5.352 2.275 6.695 3.965 1.343 1.647 2.015 3.64 2.015 5.98 0 3.163-1.257 5.698-3.77 7.605-2.47 1.907-5.958 2.86-10.465 2.86Zm29.415 0c-2.773 0-4.94-.693-6.5-2.08-1.516-1.387-2.275-3.597-2.275-6.63v-22.23h-4.485v-.65l1.56-.26c1.344-.303 2.492-.737 3.445-1.3.997-.563 1.972-1.322 2.925-2.275l5.33-5.915h.65l-.195 9.1h7.28v1.3h-7.345v23.4c0 1.517.325 2.665.975 3.445.694.78 1.56 1.17 2.6 1.17.91 0 1.712-.217 2.405-.65.694-.477 1.387-1.105 2.08-1.885l.65.65c-.866 1.473-2.058 2.643-3.575 3.51-1.516.867-3.358 1.3-5.525 1.3ZM272.019 95v-.65l1.365-.455c.867-.303 1.43-.693 1.69-1.17.26-.52.39-1.235.39-2.145V56.585c0-.867-.13-1.538-.39-2.015-.217-.52-.737-.932-1.56-1.235l-1.495-.585v-.65h18.59c5.113 0 9.035.975 11.765 2.925 2.73 1.907 4.095 4.572 4.095 7.995 0 1.907-.715 3.813-2.145 5.72-1.43 1.907-3.683 3.38-6.76 4.42l9.035 17.94c.39.737.823 1.343 1.3 1.82.52.433 1.192.823 2.015 1.17l.845.325V95h-11.635l-9.62-20.475h-4.42V90.58c0 .823.13 1.495.39 2.015s.802.91 1.625 1.17l1.56.585V95h-16.64Zm13.065-21.775h3.12c3.12 0 5.373-.823 6.76-2.47 1.387-1.69 2.08-4.182 2.08-7.475 0-3.337-.65-5.807-1.95-7.41-1.3-1.647-3.488-2.47-6.565-2.47h-3.445v19.825Zm42.92-10.465c2.816 0 5.221.585 7.215 1.755 1.993 1.127 3.51 2.687 4.55 4.68 1.083 1.95 1.625 4.182 1.625 6.695 0 .477-.022.975-.065 1.495-.044.477-.13.91-.26 1.3h-19.37c.043 4.68.866 8.06 2.47 10.14 1.646 2.037 4.073 3.055 7.28 3.055 2.166 0 3.921-.347 5.265-1.04 1.343-.693 2.6-1.712 3.77-3.055l.65.585c-1.344 2.383-3.142 4.247-5.395 5.59-2.21 1.343-4.875 2.015-7.995 2.015-3.077 0-5.807-.65-8.19-1.95-2.384-1.343-4.247-3.25-5.59-5.72-1.344-2.47-2.015-5.417-2.015-8.84 0-3.553.78-6.565 2.34-9.035 1.56-2.513 3.553-4.42 5.98-5.72 2.47-1.3 5.048-1.95 7.735-1.95Zm-.195 1.3c-1.257 0-2.34.39-3.25 1.17-.867.737-1.56 2.08-2.08 4.03-.477 1.907-.737 4.615-.78 8.125h11.115c.433-4.723.26-8.125-.52-10.205s-2.275-3.12-4.485-3.12Zm30.994 19.695c-2.99 0-5.525-.498-7.605-1.495v2.21c0 1.343.672 2.145 2.015 2.405l12.22 2.275c2.037.39 3.878.91 5.525 1.56 1.647.607 2.968 1.495 3.965 2.665.997 1.127 1.495 2.687 1.495 4.68 0 2.123-.693 4.073-2.08 5.85-1.387 1.82-3.445 3.272-6.175 4.355-2.687 1.127-6.045 1.69-10.075 1.69-3.467 0-6.218-.368-8.255-1.105-2.037-.693-3.488-1.603-4.355-2.73-.823-1.127-1.235-2.318-1.235-3.575 0-1.56.52-3.142 1.56-4.745 1.083-1.56 2.405-2.817 3.965-3.77-1.343-.52-2.318-1.192-2.925-2.015-.607-.823-.91-1.712-.91-2.665 0-.867.217-1.668.65-2.405.477-.78 1.04-1.56 1.69-2.34l2.145-2.73c-3.163-1.82-4.745-4.68-4.745-8.58 0-3.12 1.105-5.655 3.315-7.605 2.253-1.95 5.547-2.925 9.88-2.925 2.21 0 4.138.26 5.785.78 1.69.52 3.077 1.257 4.16 2.21a18.392 18.392 0 0 0 3.9-1.04 12.247 12.247 0 0 0 3.38-2.08l.91.65v3.315h-7.345c1.56 1.733 2.34 3.965 2.34 6.695 0 3.033-1.127 5.547-3.38 7.54-2.21 1.95-5.482 2.925-9.815 2.925Zm-.065-1.3c1.733 0 2.99-.715 3.77-2.145.823-1.43 1.235-3.813 1.235-7.15s-.412-5.677-1.235-7.02c-.78-1.387-1.993-2.08-3.64-2.08-1.603 0-2.817.715-3.64 2.145-.823 1.387-1.235 3.748-1.235 7.085 0 3.337.368 5.698 1.105 7.085.78 1.387 1.993 2.08 3.64 2.08Zm-9.685 18.005c0 2.557.78 4.485 2.34 5.785 1.603 1.3 4.117 1.95 7.54 1.95 3.597 0 6.305-.585 8.125-1.755 1.82-1.17 2.73-2.817 2.73-4.94 0-1.213-.455-2.188-1.365-2.925-.867-.737-2.362-1.3-4.485-1.69l-11.765-2.21-1.04-.26a12.376 12.376 0 0 0-1.495 2.925c-.39 1.127-.585 2.167-.585 3.12Zm38.522-4.485c-2.513 0-4.636-.715-6.37-2.145-1.69-1.43-2.535-3.488-2.535-6.175 0-2.037 1.04-3.9 3.12-5.59 2.08-1.733 5.352-3.033 9.815-3.9.694-.13 1.474-.26 2.34-.39.867-.173 1.777-.347 2.73-.52V72.12c0-2.947-.368-5.005-1.105-6.175-.693-1.213-1.798-1.82-3.315-1.82-1.04 0-1.863.347-2.47 1.04-.606.65-.996 1.798-1.17 3.445l-.13.715c-.086 1.863-.541 3.228-1.365 4.095-.823.867-1.841 1.3-3.055 1.3-1.126 0-2.058-.347-2.795-1.04-.736-.693-1.105-1.625-1.105-2.795 0-1.777.607-3.272 1.82-4.485 1.257-1.213 2.904-2.123 4.94-2.73 2.037-.607 4.247-.91 6.63-.91 3.857 0 6.825.953 8.905 2.86 2.124 1.863 3.185 4.918 3.185 9.165V89.15c0 1.95.91 2.925 2.73 2.925h1.43l.585.52c-.823 1.04-1.733 1.842-2.73 2.405-.953.563-2.318.845-4.095.845-1.906 0-3.423-.433-4.55-1.3-1.083-.91-1.798-2.102-2.145-3.575-1.3 1.387-2.643 2.578-4.03 3.575-1.343.953-3.098 1.43-5.265 1.43Zm3.965-3.965c.867 0 1.669-.195 2.405-.585.78-.433 1.69-1.083 2.73-1.95v-10.92l-1.3.26a34.06 34.06 0 0 1-1.495.26c-1.993.52-3.596 1.408-4.81 2.665-1.17 1.213-1.755 2.86-1.755 4.94 0 1.777.412 3.12 1.235 4.03.824.867 1.82 1.3 2.99 1.3ZM411.601 95v-.65l.975-.26c.867-.26 1.452-.65 1.755-1.17.347-.52.52-1.192.52-2.015V70.56c0-.953-.173-1.647-.52-2.08-.303-.477-.888-.802-1.755-.975l-.975-.26v-.65l11.18-3.77.65.65.585 5.59v.52a13.542 13.542 0 0 1 2.34-3.315 13.754 13.754 0 0 1 3.25-2.535c1.213-.65 2.405-.975 3.575-.975 1.647 0 2.903.455 3.77 1.365.867.91 1.3 2.058 1.3 3.445 0 1.473-.433 2.622-1.3 3.445-.823.78-1.82 1.17-2.99 1.17-1.82 0-3.423-.91-4.81-2.73l-.13-.13c-.433-.607-.932-.932-1.495-.975-.563-.087-1.083.173-1.56.78a5.25 5.25 0 0 0-1.105 1.43c-.26.52-.52 1.127-.78 1.82v18.135c0 1.733.758 2.817 2.275 3.25l2.08.585V95h-16.835Zm41.456.975c-2.557 0-4.854-.563-6.89-1.69-2.037-1.17-3.662-2.947-4.875-5.33-1.17-2.427-1.755-5.525-1.755-9.295 0-3.813.671-6.955 2.015-9.425 1.343-2.513 3.12-4.377 5.33-5.59 2.21-1.257 4.615-1.885 7.215-1.885 1.516 0 2.968.152 4.355.455 1.386.303 2.621.758 3.705 1.365v-8.45c0-.91-.152-1.582-.455-2.015-.26-.433-.845-.737-1.755-.91l-1.235-.26v-.65l11.83-2.86.715.585-.26 9.1v31.785c0 .867.151 1.582.455 2.145.303.52.866.888 1.69 1.105l.585.195V95l-11.115.715-.585-2.34c-1.17.78-2.514 1.408-4.03 1.885-1.474.477-3.12.715-4.94.715Zm3.77-2.405c1.82 0 3.488-.542 5.005-1.625V66.14c-1.604-1.04-3.25-1.56-4.94-1.56-2.08 0-3.857 1.213-5.33 3.64-1.474 2.383-2.21 6.153-2.21 11.31 0 5.157.693 8.797 2.08 10.92 1.386 2.08 3.185 3.12 5.395 3.12Zm31.019 2.405c-2.123 0-4.03-.26-5.72-.78a25.024 25.024 0 0 1-4.68-1.82l.065-7.735h.65l2.21 3.9c.953 1.733 1.993 3.033 3.12 3.9 1.17.823 2.643 1.235 4.42 1.235 2.08 0 3.748-.455 5.005-1.365 1.3-.953 1.95-2.21 1.95-3.77 0-1.43-.455-2.6-1.365-3.51-.91-.91-2.6-1.733-5.07-2.47l-2.73-.845c-2.643-.78-4.723-1.993-6.24-3.64-1.517-1.647-2.275-3.662-2.275-6.045 0-2.86 1.127-5.287 3.38-7.28 2.253-1.993 5.482-2.99 9.685-2.99 1.69 0 3.272.195 4.745.585 1.517.347 2.968.888 4.355 1.625l-.39 7.02h-.65l-2.275-4.03c-.823-1.43-1.647-2.427-2.47-2.99-.78-.607-1.972-.91-3.575-.91-1.473 0-2.86.412-4.16 1.235-1.3.823-1.95 1.993-1.95 3.51 0 1.473.542 2.643 1.625 3.51 1.127.867 2.773 1.668 4.94 2.405l2.925.845c3.12.953 5.352 2.275 6.695 3.965 1.343 1.647 2.015 3.64 2.015 5.98 0 3.163-1.257 5.698-3.77 7.605-2.47 1.907-5.958 2.86-10.465 2.86Z" />
      <path d="M148.43 95h-1v1h1v-1Zm0-.65-.362-.932-.638.248v.684h1Zm1.17-.455.363.932.008-.004-.371-.928Zm1.755-1.3-.832-.555-.017.025-.015.026.864.504Zm0-38.155-.864.504.015.026.017.025.832-.555Zm-1.755-1.235-.362.932.016.006.016.006.33-.944Zm-1.17-.455h-1v.684l.638.248.362-.932Zm0-.65v-1h-1v1h1Zm30.095 2.925-.64.768.008.007.632-.775Zm.91 13.325-.724-.69.724.69Zm-8.775 3.77-.174-.985.066 1.98.108-.995Zm10.465 3.77-.67.743.008.007.662-.75Zm2.405 11.375.916.4.005-.01-.921-.39Zm-3.12 3.835-.622-.783-.006.004-.005.005.633.774Zm-5.915 2.86.266.964.008-.002.007-.002-.281-.96Zm-13-21.905h-1v1h1v-1Zm9.035-2.015-.719-.695-.005.006-.006.006.73.683Zm.195-14.43-.783.622.783-.622Zm-9.23-2.21v-1h-1v1h1Zm0 40.3h-1v1h1v-1Zm10.465-2.6-.734-.68-.009.011.743.669Zm.13-15.535.697-.717-.697.717Zm-10.595-2.21v-1h-1v1h1ZM149.43 95v-.65h-2V95h2Zm-.637.282 1.17-.455-.725-1.864-1.17.455.725 1.864Zm1.178-.459c.967-.386 1.785-.931 2.248-1.724l-1.728-1.008c-.144.247-.495.569-1.262.876l.742 1.856Zm2.216-1.673c.491-.737.688-1.645.688-2.635h-2c0 .743-.15 1.222-.352 1.525l1.664 1.11Zm.688-2.635v-33.93h-2v33.93h2Zm0-33.93c0-1.022-.192-1.956-.688-2.7l-1.664 1.11c.198.296.352.792.352 1.59h2Zm-.656-2.649c-.472-.81-1.311-1.333-2.289-1.675l-.66 1.888c.755.264 1.087.564 1.221.795l1.728-1.008Zm-2.256-1.663-1.17-.455-.725 1.864 1.17.455.725-1.864Zm-.533.477v-.65h-2v.65h2Zm-1 .35h18.655v-2H148.43v2Zm18.655 0c5.209 0 8.731.97 10.8 2.693l1.28-1.536c-2.611-2.176-6.715-3.157-12.08-3.157v2Zm10.808 2.7c2.114 1.722 3.142 3.867 3.142 6.505h2c0-3.256-1.312-5.964-3.878-8.055l-1.264 1.55Zm3.142 6.505c0 1.917-.742 3.694-2.324 5.355l1.448 1.38c1.884-1.979 2.876-4.233 2.876-6.735h-2Zm-2.324 5.356c-1.47 1.545-4.139 2.75-8.225 3.474l.348 1.97c4.235-.75 7.416-2.058 9.326-4.066l-1.449-1.378Zm-8.159 5.453c4.675.51 7.919 1.728 9.903 3.519l1.34-1.486c-2.436-2.196-6.168-3.491-11.026-4.021l-.217 1.988Zm9.911 3.526c2.007 1.77 2.977 3.885 2.977 6.4h2c0-3.118-1.24-5.77-3.653-7.9l-1.324 1.5Zm2.977 6.4c0 1.237-.27 2.513-.831 3.834l1.842.782c.652-1.54.989-3.08.989-4.616h-2Zm-.826 3.824c-.527 1.205-1.45 2.36-2.826 3.453l1.244 1.566c1.571-1.247 2.728-2.649 3.414-4.217l-1.832-.802Zm-2.837 3.462c-1.293 1.058-3.129 1.96-5.563 2.674l.562 1.92c2.593-.76 4.7-1.764 6.267-3.046l-1.266-1.548Zm-5.548 2.67c-2.396.661-5.484 1.004-9.289 1.004v2c3.908 0 7.19-.35 9.821-1.076l-.532-1.928ZM164.94 94h-16.51v2h16.51v-2Zm-3.445-20.945h2.795v-2h-2.795v2Zm2.795 0c3.024 0 5.439-.695 6.97-2.332l-1.46-1.366c-.982 1.05-2.727 1.698-5.51 1.698v2Zm6.959-2.32c1.578-1.63 2.231-4.305 2.231-7.715h-2c0 3.263-.646 5.268-1.669 6.325l1.438 1.39Zm2.231-7.715c0-3.526-.584-6.285-1.972-8.032l-1.566 1.244c.953 1.2 1.538 3.38 1.538 6.788h2Zm-1.972-8.032c-1.428-1.798-3.685-2.588-6.503-2.588v2c2.468 0 4.025.684 4.937 1.832l1.566-1.244Zm-6.503-2.588h-3.51v2h3.51v-2Zm-4.51 1v18.655h2V53.4h-2Zm1 41.3h3.25v-2h-3.25v2Zm3.25 0c3.418 0 6.143-.914 7.958-2.931l-1.486-1.338c-1.305 1.45-3.39 2.269-6.472 2.269v2Zm7.949-2.921c1.848-1.998 2.671-5.004 2.671-8.804h-2c0 3.567-.781 5.977-2.139 7.446l1.468 1.358Zm2.671-8.804c0-3.572-.775-6.375-2.578-8.127l-1.394 1.434c1.23 1.195 1.972 3.331 1.972 6.693h2Zm-2.578-8.127c-1.792-1.741-4.603-2.493-8.172-2.493v2c3.364 0 5.537.721 6.778 1.927l1.394-1.434Zm-8.172-2.493h-3.12v2h3.12v-2Zm-4.12 1V93.7h2V73.355h-2Zm50.564-8.84-.507.862.007.005.008.004.492-.871Zm4.55 4.68-.887.463.006.011.006.012.875-.486Zm1.56 8.19.995.09.001-.007-.996-.083Zm-.26 1.3v1h.72l.228-.684-.948-.316Zm-19.37 0v-1h-1.01l.01 1.01 1-.01Zm2.47 10.14-.792.61.007.01.007.009.778-.629Zm12.545 2.015.458.889-.458-.889Zm3.77-3.055.669-.743-.756-.68-.668.766.755.657Zm.65.585.871.491.393-.698-.595-.536-.669.743Zm-5.395 5.59-.513-.859-.007.005.52.854Zm-16.185.065-.491.871.012.007.479-.878Zm-5.59-5.72.878-.478-.878.478Zm.325-17.875.845.534.004-.007-.849-.527Zm5.98-5.72-.466-.885-.007.003.473.882Zm4.29.52.647.762.003-.003-.65-.759Zm-2.08 4.03-.967-.258-.002.008-.002.007.971.243Zm-.78 8.125-1-.012-.013 1.012h1.013v-1Zm11.115 0v1h.912l.083-.909-.995-.091Zm-.52-10.205.936-.351-.936.351Zm-4.29-3.42c2.677 0 4.899.555 6.708 1.617l1.013-1.724c-2.177-1.278-4.766-1.893-7.721-1.893v2Zm6.723 1.626c1.828 1.033 3.206 2.453 4.155 4.272l1.773-.926c-1.131-2.168-2.786-3.868-4.944-5.088l-.984 1.742Zm4.167 4.295c.991 1.783 1.5 3.844 1.5 6.209h2c0-2.661-.575-5.064-1.751-7.18l-1.749.97Zm1.5 6.209c0 .447-.021.917-.062 1.412l1.993.166a18.78 18.78 0 0 0 .069-1.578h-2Zm-.061 1.404a4.791 4.791 0 0 1-.213 1.075l1.897.632c.158-.474.258-.984.307-1.526l-1.991-.18Zm.736.391h-19.37v2h19.37v-2Zm-20.37 1.01c.044 4.746.872 8.398 2.678 10.74l1.584-1.22c-1.402-1.818-2.22-4.926-2.262-9.54l-2 .02Zm2.692 10.759c1.879 2.324 4.624 3.426 8.058 3.426v-2c-2.98 0-5.088-.934-6.503-2.684l-1.555 1.258Zm8.058 3.426c2.261 0 4.19-.36 5.723-1.151l-.917-1.778c-1.154.596-2.735.929-4.806.929v2Zm5.723-1.151c1.474-.761 2.827-1.865 4.066-3.287l-1.509-1.314c-1.101 1.265-2.261 2.197-3.474 2.823l.917 1.778Zm2.643-3.2.65.584 1.338-1.486-.65-.585-1.338 1.486Zm.447-.65c-1.261 2.238-2.938 3.972-5.035 5.222l1.024 1.718c2.409-1.437 4.329-3.43 5.754-5.958l-1.743-.982Zm-5.043 5.227c-2.024 1.23-4.501 1.869-7.475 1.869v2c3.265 0 6.118-.704 8.514-2.16l-1.039-1.71Zm-7.475 1.869c-2.932 0-5.494-.618-7.712-1.828l-.957 1.756c2.549 1.39 5.447 2.072 8.669 2.072v-2Zm-7.699-1.821c-2.216-1.249-3.947-3.017-5.203-5.327l-1.757.956c1.43 2.63 3.426 4.675 5.978 6.113l.982-1.742Zm-5.203-5.327c-1.248-2.294-1.893-5.07-1.893-8.362h-2c0 3.554.697 6.672 2.136 9.318l1.757-.956Zm-1.893-8.362c0-3.405.746-6.222 2.185-8.501l-1.691-1.068c-1.681 2.661-2.494 5.868-2.494 9.569h2Zm2.189-8.508c1.475-2.375 3.342-4.155 5.603-5.365l-.945-1.764c-2.593 1.39-4.712 3.424-6.357 6.075l1.699 1.054Zm5.596-5.362c2.332-1.227 4.752-1.835 7.27-1.835v-2c-2.856 0-5.593.693-8.201 2.065l.931 1.77Zm7.075-2.535c-1.483 0-2.801.467-3.901 1.41l1.301 1.52c.72-.617 1.569-.93 2.6-.93v-2Zm-3.898 1.408c-1.101.936-1.862 2.521-2.399 4.534l1.933.516c.503-1.887 1.129-2.989 1.761-3.526l-1.295-1.524Zm-2.403 4.55c-.504 2.018-.766 4.817-.809 8.355l2 .024c.042-3.483.301-6.1.75-7.895l-1.941-.484Zm.191 9.367h11.115v-2h-11.115v2Zm12.11-.909c.435-4.74.286-8.34-.579-10.647l-1.873.702c.695 1.852.893 5.056.461 9.763l1.991.182Zm-.579-10.647c-.445-1.188-1.124-2.15-2.072-2.81-.948-.66-2.085-.959-3.349-.959v2c.945 0 1.66.22 2.207.6.548.382 1.007.979 1.341 1.871l1.873-.702Zm16.928 28.366.294-.956-.011-.003-.012-.003-.271.962Zm-4.68-1.82-1-.008-.005.615.547.282.458-.889Zm.065-7.735v-1h-.992l-.008.992 1 .008Zm.65 0 .87-.493-.287-.507h-.583v1Zm2.21 3.9.876-.482-.006-.011-.87.493Zm3.12 3.9-.61.793.017.013.017.012.576-.818Zm9.425-.13.586.81.005-.004-.591-.806Zm.585-7.28-.707.707.707-.707Zm-5.07-2.47-.296.955.01.003.286-.958Zm-2.73-.845.296-.955-.013-.004-.283.959Zm-6.24-3.64-.736.677.736-.677Zm1.105-13.325-.663-.749.663.749Zm14.43-2.405-.256.967.016.004.017.004.223-.975Zm4.355 1.625.998.055.036-.638-.565-.3-.469.883Zm-.39 7.02v1h.946l.052-.944-.998-.056Zm-.65 0-.871.492.287.508h.584v-1Zm-2.275-4.03.871-.492-.004-.007-.867.499Zm-2.47-2.99-.614.79.024.018.025.017.565-.825Zm-8.06 7.345-.625.78.008.007.007.006.61-.793Zm4.94 2.405-.322.947.022.007.022.007.278-.961Zm2.925.845.292-.956-.007-.003-.008-.002-.277.961Zm6.695 3.965-.783.622.008.01.775-.632Zm-1.755 13.585-.604-.797-.007.005.611.792Zm-10.465 1.86c-2.043 0-3.848-.25-5.426-.736l-.588 1.912c1.802.554 3.81.824 6.014.824v-2Zm-5.449-.742a24.023 24.023 0 0 1-4.493-1.747l-.916 1.778c1.495.77 3.118 1.4 4.866 1.893l.543-1.924Zm-3.951-.85.065-7.735-2-.016-.065 7.735 2 .016Zm-.935-6.743h.65v-2h-.65v2Zm-.22-.507 2.21 3.9 1.74-.986-2.21-3.9-1.74.986Zm2.204 3.889c.995 1.81 2.116 3.234 3.386 4.21l1.22-1.585c-.984-.756-1.943-1.932-2.854-3.589l-1.752.964Zm3.42 4.236c1.376.968 3.064 1.417 4.996 1.417v-2c-1.621 0-2.88-.374-3.845-1.053l-1.151 1.636Zm4.996 1.417c2.22 0 4.115-.486 5.591-1.555l-1.173-1.62c-1.036.75-2.478 1.175-4.418 1.175v2Zm5.596-1.559c1.547-1.134 2.359-2.685 2.359-4.576h-2c0 1.23-.488 2.191-1.541 2.964l1.182 1.612Zm2.359-4.576c0-1.663-.539-3.098-1.658-4.217l-1.414 1.414c.701.7 1.072 1.606 1.072 2.803h2Zm-1.658-4.217c-1.096-1.096-2.992-1.976-5.491-2.721l-.572 1.916c2.44.728 3.924 1.495 4.649 2.22l1.414-1.415Zm-5.481-2.718-2.73-.845-.592 1.91 2.73.845.592-1.91Zm-2.743-.85c-2.51-.74-4.419-1.871-5.788-3.358l-1.471 1.355c1.665 1.808 3.916 3.103 6.693 3.922l.566-1.918Zm-5.788-3.358c-1.334-1.449-2.01-3.217-2.01-5.367h-2c0 2.617.841 4.879 2.539 6.722l1.471-1.355Zm-2.01-5.367c0-2.557.991-4.716 3.042-6.531l-1.325-1.498c-2.455 2.172-3.717 4.866-3.717 8.029h2Zm3.042-6.531c2.01-1.777 4.967-2.739 9.023-2.739v-2c-4.351 0-7.85 1.032-10.348 3.241l1.325 1.498Zm9.023-2.739c1.613 0 3.108.186 4.489.552l.512-1.934c-1.566-.414-3.234-.618-5.001-.618v2Zm4.522.56c1.43.327 2.799.837 4.109 1.533l.938-1.766a18.615 18.615 0 0 0-4.601-1.717l-.446 1.95Zm3.579.595-.39 7.02 1.997.11.39-7.02-1.997-.11Zm.609 6.075h-.65v2h.65v-2Zm.221.508-2.275-4.03-1.742.984 2.275 4.03 1.742-.984Zm-2.279-4.037c-.856-1.485-1.77-2.63-2.772-3.316l-1.13 1.65c.644.44 1.377 1.29 2.168 2.664l1.734-.998Zm-2.723-3.28c-1.035-.805-2.491-1.121-4.189-1.121v2c1.509 0 2.436.291 2.961.7l1.228-1.58Zm-4.189-1.121c-1.672 0-3.243.47-4.695 1.39l1.07 1.69c1.147-.727 2.35-1.08 3.625-1.08v-2Zm-4.695 1.39c-1.584 1.004-2.415 2.49-2.415 4.355h2c0-1.168.469-2.022 1.485-2.665l-1.07-1.69Zm-2.415 4.355c0 1.755.663 3.221 2 4.29l1.25-1.56c-.83-.665-1.25-1.539-1.25-2.73h-2Zm2.015 4.303c1.25.961 3.013 1.806 5.228 2.559l.644-1.894c-2.118-.72-3.649-1.479-4.652-2.25l-1.22 1.585Zm5.272 2.573 2.925.845.555-1.922-2.925-.845-.555 1.922Zm2.911.84c3.019.923 5.036 2.162 6.204 3.631l1.566-1.244c-1.519-1.91-3.965-3.315-7.186-4.3l-.584 1.913Zm6.212 3.641c1.183 1.45 1.79 3.213 1.79 5.348h2c0-2.546-.736-4.769-2.24-6.612l-1.55 1.264Zm1.79 5.348c0 2.852-1.111 5.091-3.374 6.808l1.208 1.594c2.764-2.097 4.166-4.927 4.166-8.402h-2Zm-3.381 6.813c-2.232 1.724-5.473 2.652-9.854 2.652v2c4.633 0 8.368-.978 11.076-3.068l-1.222-1.584Zm13.061 1.572-.674.738.01.01.664-.748Zm-2.275-28.86h1v-1h-1v1Zm-4.485 0h-1v1h1v-1Zm0-.65-.164-.986-.836.139v.847h1Zm1.56-.26.165.986.028-.004.028-.007-.221-.975Zm3.445-1.3-.492-.87-.008.004-.008.005.508.861Zm2.925-2.275.708.707.018-.018.017-.02-.743-.669Zm5.33-5.915v-1h-.445l-.297.33.742.67Zm.65 0 1 .021.022-1.021h-1.022v1Zm-.195 9.1-.999-.021-.022 1.021h1.021v-1Zm7.28 0h1v-1h-1v1Zm0 1.3v1h1v-1h-1Zm-7.345 0v-1h-1v1h1Zm.975 26.845-.768.64.01.012.011.012.747-.664Zm5.005.52.53.848.019-.012.018-.012-.567-.824Zm2.08-1.885.708-.707-.75-.75-.705.793.747.664Zm.65.65.862.507.393-.667-.547-.547-.708.707Zm-3.575 3.51-.496-.868.496.868Zm-5.525.3c-2.61 0-4.511-.65-5.835-1.827l-1.329 1.494c1.796 1.597 4.228 2.333 7.164 2.333v-2Zm-5.825-1.818c-1.227-1.122-1.95-3.005-1.95-5.892h-2c0 3.18.795 5.717 2.601 7.368l1.349-1.476Zm-1.95-5.892v-22.23h-2v22.23h2Zm-1-23.23h-4.485v2h4.485v-2Zm-3.485 1v-.65h-2v.65h2Zm-.835.336 1.56-.26-.329-1.972-1.56.26.329 1.972Zm1.616-.27c1.421-.322 2.672-.788 3.733-1.415l-1.017-1.722c-.845.5-1.891.9-3.157 1.186l.441 1.95Zm3.717-1.405c1.087-.615 2.133-1.433 3.14-2.439l-1.415-1.414c-.9.9-1.804 1.6-2.71 2.111l.985 1.742Zm3.175-2.477 5.33-5.915-1.485-1.338-5.33 5.915 1.485 1.338Zm4.587-5.584h.65v-2h-.65v2Zm-.349-1.021-.195 9.1 1.999.042.195-9.1-1.999-.042Zm.804 10.121h7.28v-2h-7.28v2Zm6.28-1v1.3h2v-1.3h-2Zm1 .3h-7.345v2h7.345v-2Zm-8.345 1v23.4h2v-23.4h-2Zm0 23.4c0 1.64.349 3.055 1.207 4.085l1.537-1.28c-.442-.53-.744-1.41-.744-2.805h-2Zm1.228 4.11c.882.992 2.021 1.505 3.347 1.505v-2c-.753 0-1.348-.267-1.852-.834l-1.495 1.328Zm3.347 1.505c1.076 0 2.066-.258 2.935-.802l-1.06-1.696c-.516.323-1.13.498-1.875.498v2Zm2.972-.826c.773-.532 1.526-1.218 2.261-2.045l-1.495-1.328c-.652.733-1.286 1.303-1.899 1.725l1.133 1.648Zm.806-2.002.65.65 1.415-1.414-.65-.65-1.415 1.414Zm.496-.564a8.592 8.592 0 0 1-3.21 3.149l.993 1.736a10.586 10.586 0 0 0 3.94-3.871l-1.723-1.014Zm-3.21 3.149c-1.333.762-2.995 1.168-5.029 1.168v2c2.3 0 4.322-.46 6.022-1.432l-.993-1.736ZM272.019 95h-1v1h1v-1Zm0-.65-.316-.949-.684.228v.721h1Zm1.365-.455.316.949.007-.003.007-.002-.33-.944Zm1.69-1.17.878.479.008-.016.008-.016-.894-.447Zm0-38.155-.923.385.02.048.025.046.878-.479Zm-1.56-1.235-.364.931.009.004.009.003.346-.938Zm-1.495-.585h-1v.682l.636.25.364-.932Zm0-.65v-1h-1v1h1Zm30.355 2.925-.581.814.008.006.573-.82Zm1.95 13.715.8.6-.8-.6Zm-6.76 4.42-.32-.947-1.091.368.518 1.029.893-.45Zm9.035 17.94-.893.45.004.009.005.009.884-.468Zm1.3 1.82-.707.707.032.032.035.03.64-.769Zm2.015 1.17-.388.922.014.006.015.005.359-.933Zm.845.325h1v-.687l-.641-.246-.359.933Zm0 .585v1h1v-1h-1Zm-11.635 0-.905.425.27.575h.635v-1Zm-9.62-20.475.905-.425-.27-.575h-.635v1Zm-4.42 0v-1h-1v1h1Zm.39 18.07.894-.447-.894.447Zm1.625 1.17.351-.936-.025-.01-.025-.008-.301.954Zm1.56.585h1v-.693l-.649-.243-.351.936Zm0 .65v1h1v-1h-1Zm-3.575-21.775h-1v1h1v-1Zm9.88-2.47.765.644.008-.01-.773-.634Zm.13-14.885-.785.62.008.01.777-.63Zm-10.01-2.47v-1h-1v1h1ZM273.019 95v-.65h-2V95h2Zm-.684.299 1.365-.455-.632-1.898-1.365.455.632 1.898Zm1.379-.46c.951-.333 1.801-.834 2.238-1.635l-1.756-.958c-.083.152-.36.431-1.142.705l.66 1.888Zm2.254-1.667c.358-.715.496-1.606.496-2.592h-2c0 .834-.122 1.373-.284 1.698l1.788.894Zm.496-2.592V56.585h-2V90.58h2Zm0-33.995c0-.944-.138-1.808-.512-2.494l-1.756.958c.146.267.268.747.268 1.536h2Zm-.467-2.4c-.371-.89-1.196-1.442-2.137-1.788l-.692 1.876c.706.26.92.532.983.682l1.846-.77Zm-2.119-1.781-1.495-.585-.728 1.862 1.495.585.728-1.862Zm-.859.346v-.65h-2v.65h2Zm-1 .35h18.59v-2h-18.59v2Zm18.59 0c5.007 0 8.691.958 11.184 2.739l1.162-1.628c-2.967-2.12-7.127-3.111-12.346-3.111v2Zm11.192 2.745c2.454 1.713 3.668 4.067 3.668 7.175h2c0-3.74-1.516-6.715-4.522-8.815l-1.146 1.64Zm3.668 7.175c0 1.641-.612 3.342-1.945 5.12l1.6 1.2c1.527-2.036 2.345-4.148 2.345-6.32h-2Zm-1.945 5.12c-1.272 1.696-3.327 3.075-6.28 4.073l.64 1.894c3.2-1.082 5.652-2.65 7.24-4.767l-1.6-1.2Zm-6.853 5.47 9.035 17.94 1.786-.9-9.035-17.94-1.786.9Zm9.044 17.958c.426.805.915 1.498 1.477 2.06l1.414-1.415c-.392-.392-.769-.912-1.123-1.58l-1.768.935Zm1.544 2.12c.616.513 1.38.95 2.267 1.324l.776-1.844c-.759-.32-1.339-.663-1.763-1.016l-1.28 1.536Zm2.296 1.335.845.325.718-1.866-.845-.325-.718 1.866Zm.204-.608V95h2v-.585h-2Zm1-.415h-11.635v2h11.635v-2Zm-10.73.575-9.62-20.475-1.81.85 9.62 20.475 1.81-.85Zm-10.525-21.05h-4.42v2h4.42v-2Zm-5.42 1V90.58h2V74.525h-2Zm0 16.055c0 .918.143 1.758.496 2.462l1.788-.894c-.167-.336-.284-.84-.284-1.568h-2Zm.496 2.462c.429.859 1.261 1.374 2.218 1.677l.602-1.908c-.69-.218-.941-.482-1.032-.663l-1.788.894Zm2.168 1.66 1.56.584.702-1.872-1.56-.585-.702 1.872Zm.911-.352V95h2v-.65h-2Zm1-.35h-16.64v2h16.64v-2Zm-3.575-19.775h3.12v-2h-3.12v2Zm3.12 0c3.278 0 5.875-.867 7.525-2.826l-1.53-1.288c-1.123 1.334-3.034 2.114-5.995 2.114v2Zm7.533-2.836c1.592-1.94 2.307-4.697 2.307-8.109h-2c0 3.174-.671 5.4-1.853 6.84l1.546 1.27Zm2.307-8.109c0-3.434-.663-6.178-2.173-8.04l-1.554 1.26c1.09 1.344 1.727 3.541 1.727 6.78h2Zm-2.165-8.03c-1.566-1.983-4.115-2.85-7.35-2.85v2c2.919 0 4.746.78 5.78 2.09l1.57-1.24Zm-7.35-2.85h-3.445v2h3.445v-2Zm-4.445 1v19.825h2V53.4h-2Zm51.135 11.115-.506.862.007.005.007.004.492-.871Zm4.55 4.68-.887.463.006.011.007.012.874-.486Zm1.56 8.19.996.09v-.007l-.996-.083Zm-.26 1.3v1h.72l.228-.684-.948-.316Zm-19.37 0v-1h-1.01l.01 1.01 1-.01Zm2.47 10.14-.792.61.007.01.007.009.778-.629Zm12.545 2.015.458.889-.458-.889Zm3.77-3.055.669-.743-.756-.68-.667.766.754.657Zm.65.585.871.491.393-.698-.595-.536-.669.743Zm-5.395 5.59-.512-.859-.008.005.52.854Zm-16.185.065-.491.871.012.007.479-.878Zm-5.59-5.72.878-.478-.878.478Zm.325-17.875.845.534.004-.007-.849-.527Zm5.98-5.72-.466-.885-.006.003.472.882Zm4.29.52.647.762.004-.003-.651-.759Zm-2.08 4.03-.967-.258-.002.008-.001.007.97.243Zm-.78 8.125-1-.012-.013 1.012h1.013v-1Zm11.115 0v1h.912l.084-.909-.996-.091Zm-.52-10.205.936-.351-.936.351Zm-4.29-3.42c2.677 0 4.899.555 6.709 1.617l1.012-1.724c-2.177-1.278-4.765-1.893-7.721-1.893v2Zm6.723 1.626c1.828 1.033 3.206 2.453 4.155 4.272l1.773-.926c-1.131-2.168-2.786-3.868-4.944-5.088l-.984 1.742Zm4.168 4.295c.99 1.783 1.499 3.844 1.499 6.209h2c0-2.661-.575-5.064-1.751-7.18l-1.748.97Zm1.499 6.209c0 .447-.021.917-.062 1.412l1.993.166a18.78 18.78 0 0 0 .069-1.578h-2Zm-.061 1.404a4.791 4.791 0 0 1-.213 1.075l1.897.632c.158-.474.258-.984.308-1.526l-1.992-.18Zm.736.391h-19.37v2h19.37v-2Zm-20.37 1.01c.044 4.746.872 8.398 2.678 10.74l1.584-1.22c-1.401-1.818-2.22-4.926-2.262-9.54l-2 .02Zm2.692 10.759c1.879 2.324 4.624 3.426 8.058 3.426v-2c-2.98 0-5.088-.934-6.503-2.684l-1.555 1.258Zm8.058 3.426c2.261 0 4.19-.36 5.723-1.151l-.917-1.778c-1.153.596-2.735.929-4.806.929v2Zm5.723-1.151c1.474-.761 2.827-1.865 4.066-3.287l-1.508-1.314c-1.102 1.265-2.262 2.197-3.475 2.823l.917 1.778Zm2.643-3.2.65.584 1.338-1.486-.65-.585-1.338 1.486Zm.448-.65c-1.262 2.238-2.939 3.972-5.036 5.222l1.024 1.718c2.409-1.437 4.329-3.43 5.754-5.958l-1.742-.982Zm-5.044 5.227c-2.024 1.23-4.501 1.869-7.475 1.869v2c3.265 0 6.118-.704 8.514-2.16l-1.039-1.71Zm-7.475 1.869c-2.932 0-5.494-.618-7.711-1.828l-.958 1.756c2.549 1.39 5.447 2.072 8.669 2.072v-2Zm-7.699-1.821c-2.215-1.249-3.947-3.017-5.203-5.327l-1.757.956c1.431 2.63 3.426 4.675 5.978 6.113l.982-1.742Zm-5.203-5.327c-1.248-2.294-1.893-5.07-1.893-8.362h-2c0 3.554.698 6.672 2.136 9.318l1.757-.956Zm-1.893-8.362c0-3.405.746-6.222 2.185-8.501l-1.691-1.068c-1.681 2.661-2.494 5.868-2.494 9.569h2Zm2.189-8.508c1.475-2.375 3.342-4.155 5.603-5.365l-.944-1.764c-2.593 1.39-4.712 3.424-6.358 6.075l1.699 1.054Zm5.596-5.362c2.333-1.227 4.752-1.835 7.27-1.835v-2c-2.856 0-5.593.693-8.201 2.065l.931 1.77Zm7.075-2.535c-1.483 0-2.8.467-3.901 1.41l1.302 1.52c.719-.617 1.568-.93 2.599-.93v-2Zm-3.898 1.408c-1.101.936-1.862 2.521-2.399 4.534l1.933.516c.503-1.887 1.129-2.989 1.761-3.526l-1.295-1.524Zm-2.402 4.55c-.505 2.018-.767 4.817-.81 8.355l2 .024c.043-3.483.301-6.1.75-7.895l-1.94-.484Zm.19 9.367h11.115v-2h-11.115v2Zm12.111-.909c.434-4.74.286-8.34-.58-10.647l-1.873.702c.695 1.852.893 5.056.461 9.763l1.992.182Zm-.58-10.647c-.445-1.188-1.124-2.15-2.071-2.81-.949-.66-2.085-.959-3.35-.959v2c.945 0 1.661.22 2.207.6.548.382 1.007.979 1.341 1.871l1.873-.702Zm17.968 15.431.432-.902-1.432-.686v1.588h1Zm2.015 4.615-.19.982.007.001.183-.983Zm12.22 2.275.188-.982-.005-.001-.183.983Zm5.525 1.56-.367.93.011.004.01.004.346-.938Zm3.965 2.665-.761.648.006.008.006.007.749-.663Zm-.585 10.53-.788-.615-.007.009.795.606Zm-6.175 4.355-.369-.929-.009.003-.009.004.387.922Zm-18.33.585.34-.94-.009-.004-.009-.003-.322.947Zm-4.355-2.73-.807.59.007.01.007.01.793-.61Zm.325-8.32-.821-.57-.009.013-.009.013.839.544Zm3.965-3.77.522.853 1.726-1.055-1.887-.73-.361.932Zm-2.925-2.015-.805.593.805-.593Zm-.26-5.07-.853-.522-.005.008-.004.007.862.507Zm1.69-2.34.768.64.009-.01.009-.012-.786-.618Zm2.145-2.73.786.618.714-.909-1.001-.576-.499.867Zm-1.43-16.185-.654-.756-.008.006.662.75Zm15.665-2.145-.301.954.007.002.294-.956Zm4.16 2.21-.661.75.352.31.463-.072-.154-.988Zm3.9-1.04.366.93.008-.002.008-.004-.382-.924Zm3.38-2.08.581-.814-.642-.458-.595.517.656.755Zm.91.65h1v-.515l-.419-.299-.581.814Zm0 3.315v1h1v-1h-1Zm-7.345 0v-1h-2.245l1.502 1.669.743-.669Zm-1.04 14.235.662.75.001-.001-.663-.749Zm-6.11-.52-.867-.499-.005.01-.006.01.878.479Zm0-14.17-.872.49.01.017.009.016.853-.523Zm-7.28.065.86.51.007-.011-.867-.499Zm-.13 14.17-.883.47.006.01.005.01.872-.49Zm-3.705 25.87-.64.768.01.009.63-.777Zm15.665.195.541.841-.541-.841Zm1.365-7.865-.648.762.01.008.009.007.629-.777Zm-4.485-1.69-.185.983h.004l.181-.983Zm-11.765-2.21-.242.97.028.007.029.006.185-.983Zm-1.04-.26.243-.97-.668-.167-.394.563.819.574Zm-1.495 2.925-.941-.339-.004.012.945.327Zm9.165-14.585c-2.883 0-5.262-.481-7.173-1.397l-.864 1.804c2.249 1.077 4.94 1.593 8.037 1.593v-2Zm-8.605-.495v2.21h2v-2.21h-2Zm0 2.21c0 .838.212 1.624.737 2.251.524.625 1.261.976 2.088 1.136l.38-1.964c-.516-.1-.786-.28-.935-.457-.146-.174-.27-.461-.27-.966h-2Zm2.832 3.388 12.22 2.275.366-1.966-12.22-2.275-.366 1.966Zm12.215 2.274c1.986.38 3.766.884 5.346 1.508l.734-1.86c-1.713-.677-3.616-1.212-5.704-1.612l-.376 1.964Zm5.367 1.516c1.509.556 2.679 1.354 3.55 2.376l1.522-1.297c-1.123-1.319-2.596-2.298-4.38-2.955l-.692 1.876Zm3.562 2.39c.789.89 1.244 2.187 1.244 4.017h2c0-2.157-.541-3.98-1.746-5.343l-1.498 1.326Zm1.244 4.017c0 1.886-.61 3.622-1.868 5.235l1.576 1.23c1.515-1.941 2.292-4.104 2.292-6.465h-2Zm-1.875 5.244c-1.25 1.64-3.141 2.997-5.749 4.032l.738 1.858c2.852-1.131 5.078-2.678 6.602-4.678l-1.591-1.212Zm-5.767 4.039c-2.527 1.059-5.743 1.612-9.688 1.612v2c4.115 0 7.615-.574 10.462-1.768l-.774-1.844Zm-9.688 1.612c-3.412 0-6.033-.365-7.915-1.045l-.68 1.88c2.191.793 5.074 1.165 8.595 1.165v-2Zm-7.933-1.052c-1.939-.66-3.185-1.483-3.884-2.393l-1.586 1.22c1.034 1.344 2.692 2.34 4.826 3.067l.644-1.894Zm-3.87-2.373c-.712-.975-1.042-1.964-1.042-2.985h-2c0 1.492.494 2.887 1.428 4.165l1.614-1.18Zm-1.042-2.985c0-1.327.44-2.723 1.399-4.2l-1.678-1.09c-1.121 1.73-1.721 3.497-1.721 5.29h2Zm1.381-4.175c1.008-1.45 2.229-2.609 3.666-3.487l-1.043-1.706c-1.684 1.028-3.106 2.383-4.265 4.053l1.642 1.14Zm3.505-5.273c-1.235-.478-2.024-1.055-2.481-1.675l-1.61 1.186c.757 1.027 1.918 1.793 3.369 2.355l.722-1.866Zm-2.481-1.675c-.49-.665-.715-1.348-.715-2.072h-2c0 1.183.381 2.276 1.105 3.258l1.61-1.186Zm-.715-2.072c0-.691.17-1.317.512-1.898l-1.724-1.014a5.66 5.66 0 0 0-.788 2.912h2Zm.503-1.884c.449-.734.983-1.474 1.605-2.22l-1.536-1.281a20.682 20.682 0 0 0-1.775 2.459l1.706 1.042Zm1.623-2.243 2.145-2.73-1.572-1.236-2.145 2.73 1.572 1.236Zm1.858-4.215c-2.828-1.627-4.244-4.14-4.244-7.713h-2c0 4.228 1.748 7.434 5.246 9.447l.998-1.734Zm-4.244-7.713c0-2.852.996-5.107 2.977-6.855l-1.324-1.5c-2.439 2.152-3.653 4.967-3.653 8.355h2Zm2.969-6.849c2.005-1.734 5.026-2.681 9.226-2.681v-2c-4.467 0-8.032 1.003-10.534 3.169l1.308 1.512Zm9.226-2.681c2.135 0 3.958.252 5.484.734l.602-1.908c-1.767-.558-3.801-.826-6.086-.826v2Zm5.491.736c1.584.487 2.838 1.163 3.793 2.005l1.322-1.502c-1.211-1.065-2.731-1.862-4.527-2.415l-.588 1.912Zm4.608 2.242a19.414 19.414 0 0 0 4.112-1.097l-.732-1.862c-1.14.448-2.368.777-3.688.983l.308 1.976Zm4.128-1.104a13.232 13.232 0 0 0 3.654-2.25l-1.312-1.509a11.25 11.25 0 0 1-3.106 1.911l.764 1.848Zm2.417-2.19.91.65 1.162-1.628-.91-.65-1.162 1.628Zm.491-.164v3.315h2V63.28h-2Zm1 2.315h-7.345v2h7.345v-2Zm-8.088 1.669c1.367 1.519 2.083 3.498 2.083 6.026h2c0-2.932-.844-5.416-2.597-7.364l-1.486 1.338Zm2.083 6.026c0 2.75-1.006 4.99-3.043 6.791l1.326 1.498c2.47-2.185 3.717-4.972 3.717-8.289h-2Zm-3.042 6.79c-1.957 1.728-4.951 2.675-9.153 2.675v2c4.465 0 8.015-1.003 10.477-3.175l-1.324-1.5Zm-9.218 3.375c1.006 0 1.931-.208 2.737-.667.81-.46 1.444-1.142 1.911-2l-1.756-.957c-.312.573-.697.964-1.144 1.219-.45.256-1.02.405-1.748.405v2Zm4.637-2.646c.962-1.671 1.368-4.282 1.368-7.649h-2c0 3.307-.417 5.462-1.102 6.651l1.734.998Zm1.368-7.649c0-3.357-.403-5.944-1.382-7.543l-1.706 1.046c.668 1.088 1.088 3.18 1.088 6.497h2Zm-1.363-7.51c-.965-1.715-2.52-2.59-4.512-2.59v2c1.301 0 2.173.512 2.768 1.57l1.744-.98Zm-4.512-2.59c-1.974 0-3.511.917-4.507 2.646l1.734.998c.651-1.131 1.54-1.644 2.773-1.644v-2Zm-4.5 2.635c-.97 1.634-1.375 4.233-1.375 7.595h2c0-3.312.419-5.436 1.095-6.575l-1.72-1.02Zm-1.375 7.595c0 3.355.361 5.934 1.222 7.554l1.766-.938c-.612-1.153-.988-3.298-.988-6.616h-2Zm1.233 7.575c.965 1.715 2.52 2.59 4.512 2.59v-2c-1.301 0-2.173-.512-2.768-1.57l-1.744.98Zm-6.173 19.595c0 2.77.855 5.016 2.7 6.553l1.28-1.536c-1.275-1.063-1.98-2.674-1.98-5.017h-2Zm2.71 6.562c1.866 1.512 4.656 2.173 8.17 2.173v-2c-3.333 0-5.569-.639-6.91-1.727l-1.26 1.554Zm8.17 2.173c3.675 0 6.61-.592 8.666-1.914l-1.082-1.682c-1.584 1.018-4.065 1.596-7.584 1.596v2Zm8.666-1.914c2.099-1.35 3.189-3.31 3.189-5.781h-2c0 1.775-.73 3.109-2.271 4.099l1.082 1.682Zm3.189-5.781c0-1.502-.582-2.768-1.736-3.702l-1.258 1.554c.666.54.994 1.224.994 2.148h2Zm-1.717-3.687c-1.074-.913-2.786-1.514-4.952-1.912l-.362 1.968c2.081.382 3.359.907 4.018 1.468l1.296-1.524Zm-4.948-1.91-11.765-2.21-.37 1.965 11.765 2.21.37-1.966Zm-11.707-2.198-1.04-.26-.485 1.94 1.04.26.485-1.94Zm-2.102.136a13.4 13.4 0 0 0-1.617 3.16l1.882.678a11.424 11.424 0 0 1 1.373-2.69l-1.638-1.148Zm-1.621 3.172c-.418 1.206-.64 2.358-.64 3.447h2c0-.818.168-1.746.53-2.793l-1.89-.654Zm32.512-3.183-.646.763.01.008.636-.771Zm.585-11.765.631.776.009-.008-.64-.768Zm9.815-3.9-.184-.983-.006.001.19.982Zm2.34-.39.149.989.024-.004.023-.004-.196-.981Zm2.73-.52.179.984.821-.15v-.834h-1Zm-1.105-11.31-.868.496.011.019.011.018.846-.533Zm-5.785-.78.731.682.011-.011.011-.013-.753-.658Zm-1.17 3.445.984.179.007-.037.004-.037-.995-.105Zm-.13.715-.984-.179-.012.066-.003.066.999.047Zm-1.365 4.095.725.689-.725-.689Zm-5.85.26.686-.728-.686.728Zm.715-7.28-.694-.72-.007.007-.006.006.707.707Zm4.94-2.73-.285-.958.285.958Zm15.535 1.95-.676.737.008.008.009.007.659-.752Zm7.345 26.455.665-.747-.285-.253h-.38v1Zm.585.52.784.62.587-.74-.706-.627-.665.747ZM407.66 95l-.492-.87-.008.004-.009.005.509.861Zm-8.645-.455-.643.766.016.013.018.014.609-.793Zm-2.145-3.575.974-.229-.428-1.816-1.275 1.361.729.684Zm-4.03 3.575.579.816.005-.004-.584-.812Zm1.105-3.12.468.884.009-.005.009-.005-.486-.874Zm2.73-1.95.64.768.36-.3v-.468h-1Zm0-10.92h1v-1.22l-1.196.24.196.98Zm-1.3.26.196.98-.196-.98Zm-1.495.26-.152-.988-.051.007-.049.013.252.968Zm-4.81 2.665-.719-.695h-.001l.72.695Zm-.52 8.97-.741.67.008.01.008.009.725-.689Zm-.975 4.265c-2.31 0-4.201-.652-5.733-1.916l-1.273 1.542c1.934 1.596 4.29 2.374 7.006 2.374v-2Zm-5.724-1.908c-1.418-1.2-2.181-2.95-2.181-5.412h-2c0 2.912.927 5.278 2.889 6.938l1.292-1.526Zm-2.181-5.412c0-1.646.825-3.25 2.751-4.814l-1.261-1.552c-2.235 1.815-3.49 3.94-3.49 6.366h2Zm2.76-4.822c1.891-1.575 4.969-2.833 9.366-3.686l-.381-1.964c-4.53.88-7.995 2.222-10.265 4.114l1.28 1.536Zm9.36-3.685a64.037 64.037 0 0 1 2.304-.384l-.297-1.978c-.876.132-1.668.263-2.376.396l.369 1.966Zm2.351-.392c.861-.172 1.765-.345 2.713-.517l-.358-1.968c-.958.174-1.874.349-2.747.523l.392 1.962Zm3.534-1.501V72.12h-2v5.135h2Zm0-5.135c0-2.965-.359-5.278-1.259-6.708l-1.692 1.066c.573.91.951 2.714.951 5.642h2Zm-1.237-6.671c-.889-1.556-2.345-2.324-4.183-2.324v2c1.195 0 1.949.445 2.447 1.316l1.736-.992Zm-4.183-2.324c-1.287 0-2.4.442-3.222 1.382l1.505 1.316c.391-.447.924-.698 1.717-.698v-2Zm-3.201 1.358c-.837.896-1.254 2.321-1.433 4.022l1.989.21c.167-1.592.53-2.464.906-2.868l-1.462-1.364Zm-1.423 3.948-.13.715 1.968.358.13-.715-1.968-.358Zm-.145.847c-.081 1.752-.504 2.835-1.091 3.453l1.45 1.378c1.06-1.116 1.547-2.762 1.639-4.737l-1.998-.094Zm-1.091 3.453c-.631.665-1.386.989-2.33.989v2c1.483 0 2.765-.543 3.78-1.611l-1.45-1.378Zm-2.33.989c-.903 0-1.58-.27-2.109-.768l-1.371 1.456c.944.888 2.13 1.312 3.48 1.312v-2Zm-2.109-.768c-.504-.474-.791-1.126-.791-2.067h-2c0 1.398.45 2.61 1.42 3.523l1.371-1.456Zm-.791-2.067c0-1.522.509-2.76 1.527-3.778l-1.414-1.414c-1.408 1.408-2.113 3.16-2.113 5.192h2Zm1.515-3.766c1.119-1.08 2.615-1.92 4.531-2.49l-.571-1.917c-2.158.642-3.955 1.622-5.349 2.969l1.389 1.438Zm4.531-2.49c1.933-.577 4.046-.869 6.344-.869v-2c-2.468 0-4.775.314-6.915.952l.571 1.916Zm6.344-.869c3.699 0 6.392.913 8.229 2.597l1.352-1.474c-2.323-2.13-5.567-3.123-9.581-3.123v2Zm8.246 2.612c1.817 1.594 2.844 4.308 2.844 8.413h2c0-4.388-1.096-7.785-3.525-9.917l-1.319 1.504Zm2.844 8.413V89.15h2V74.785h-2Zm0 14.365c0 1.113.258 2.133.952 2.876.705.756 1.696 1.049 2.778 1.049v-2c-.737 0-1.112-.194-1.316-.414-.217-.232-.414-.674-.414-1.511h-2Zm3.73 3.925h1.43v-2h-1.43v2Zm.766-.253.585.52 1.329-1.494-.585-.52-1.329 1.494Zm.465-.848c-.755.955-1.57 1.665-2.438 2.155l.984 1.742c1.126-.637 2.131-1.53 3.022-2.655l-1.568-1.242Zm-2.455 2.165c-.732.433-1.89.706-3.586.706v2c1.858 0 3.43-.29 4.604-.984l-1.018-1.722Zm-3.586.706c-1.761 0-3.039-.4-3.94-1.093l-1.219 1.586c1.352 1.04 3.107 1.507 5.159 1.507v-2Zm-3.907-1.066c-.906-.761-1.513-1.759-1.814-3.038l-1.947.458c.392 1.668 1.215 3.053 2.475 4.112l1.286-1.532Zm-3.517-3.493c-1.261 1.345-2.556 2.492-3.884 3.447l1.167 1.624c1.445-1.038 2.836-2.274 4.176-3.703l-1.459-1.368Zm-3.88 3.444c-1.128.8-2.662 1.245-4.686 1.245v2c2.309 0 4.285-.508 5.844-1.614l-1.158-1.632Zm-.721-.72a6.062 6.062 0 0 0 2.873-.701l-.936-1.768a4.06 4.06 0 0 1-1.937.469v2Zm2.891-.71c.855-.476 1.818-1.168 2.884-2.057l-1.28-1.536c-1.014.845-1.87 1.452-2.575 1.844l.971 1.748Zm3.244-2.825v-10.92h-2v10.92h2Zm-1.196-11.9-1.3.26.392 1.96 1.3-.26-.392-1.96Zm-1.3.26a33.07 33.07 0 0 1-1.451.252l.304 1.976a35.315 35.315 0 0 0 1.539-.267l-.392-1.962Zm-1.551.272c-2.139.558-3.915 1.528-5.277 2.938l1.439 1.39c1.064-1.103 2.495-1.91 4.343-2.392l-.505-1.936Zm-5.278 2.939c-1.389 1.441-2.035 3.359-2.035 5.634h2c0-1.885.525-3.26 1.475-4.246l-1.44-1.388Zm-2.035 5.634c0 1.915.443 3.54 1.494 4.7l1.483-1.34c-.596-.66-.977-1.722-.977-3.36h-2Zm1.51 4.719c1.008 1.06 2.264 1.611 3.715 1.611v-2c-.889 0-1.626-.316-2.265-.989l-1.45 1.378ZM411.601 95h-1v1h1v-1Zm0-.65-.258-.966-.742.198v.768h1Zm.975-.26.258.966.014-.004.015-.004-.287-.958Zm1.755-1.17-.832-.555-.017.025-.015.026.864.504Zm0-24.44-.844.537.029.046.034.042.781-.625Zm-1.755-.975-.258.966.031.008.031.007.196-.981Zm-.975-.26h-1v.768l.742.198.258-.966Zm0-.65-.32-.948-.68.23v.718h1Zm11.18-3.77.707-.707-.439-.439-.588.198.32.948Zm.65.65.994-.104-.036-.352-.251-.251-.707.707Zm.585 5.59h1v-.052l-.006-.052-.994.104Zm0 .52h-1l1.894.447-.894-.447Zm2.34-3.315-.722-.692h-.001l.723.692Zm3.25-2.535-.472-.882-.007.004-.007.004.486.874Zm7.345.39.724-.69-.724.69Zm0 6.89.688.726.001-.001-.689-.725Zm-7.8-1.56.795-.606-.04-.053-.048-.048-.707.707Zm-.13-.13-.814.581.048.068.059.058.707-.707Zm-1.495-.975-.152.988.037.006.038.003.077-.997Zm-1.56.78.669.743.064-.057.053-.068-.786-.618Zm-1.105 1.43-.881-.474-.007.013-.007.014.895.447Zm-.78 1.82-.936-.351-.064.17v.181h1Zm2.275 21.385-.275.962h.004l.271-.962Zm2.08.585h1v-.757l-.729-.206-.271.963Zm0 .65v1h1v-1h-1Zm-15.835 0v-.65h-2V95h2Zm-.742.316.975-.26-.516-1.932-.975.26.516 1.932Zm1.004-.268c.99-.297 1.849-.797 2.332-1.624l-1.728-1.008c-.124.213-.435.493-1.179.716l.575 1.916Zm2.3-1.573c.486-.73.688-1.61.688-2.57h-2c0 .688-.145 1.15-.352 1.46l1.664 1.11Zm.688-2.57V70.56h-2v20.345h2Zm0-20.345c0-1.033-.18-2.006-.739-2.705l-1.562 1.25c.134.167.301.581.301 1.455h2Zm-.676-2.617c-.515-.808-1.417-1.221-2.403-1.419l-.392 1.962c.747.149 1.015.386 1.107.53l1.688-1.073Zm-2.341-1.404-.975-.26-.516 1.932.975.26.516-1.932Zm-.233.706v-.65h-2v.65h2Zm-.681.298 11.18-3.77-.639-1.896-11.18 3.77.639 1.896Zm10.154-4.01.65.65 1.414-1.415-.65-.65-1.414 1.414Zm.362.046.585 5.59 1.989-.208-.585-5.59-1.989.208Zm.58 5.486v.52h2v-.52h-2Zm1.894.967a12.526 12.526 0 0 1 2.168-3.07l-1.445-1.383a14.554 14.554 0 0 0-2.512 3.559l1.789.894Zm2.168-3.07a12.751 12.751 0 0 1 3.013-2.353l-.971-1.748a14.732 14.732 0 0 0-3.486 2.717l1.444 1.384Zm3-2.346c1.094-.585 2.124-.856 3.103-.856v-2c-1.362 0-2.714.38-4.047 1.093l.944 1.764Zm3.103-.856c1.462 0 2.421.4 3.046 1.055l1.448-1.38c-1.109-1.164-2.663-1.675-4.494-1.675v2Zm3.046 1.055c.67.704 1.024 1.596 1.024 2.755h2c0-1.614-.513-3.019-1.576-4.135l-1.448 1.38Zm1.024 2.755c0 1.267-.366 2.128-.989 2.72l1.378 1.45c1.11-1.054 1.611-2.49 1.611-4.17h-2Zm-.988 2.719c-.631.598-1.379.896-2.302.896v2c1.417 0 2.662-.482 3.678-1.444l-1.376-1.452Zm-2.302.896c-1.429 0-2.764-.694-4.015-2.336l-1.591 1.212c1.523 1.998 3.395 3.124 5.606 3.124v-2Zm-4.103-2.437-.13-.13-1.414 1.414.13.13 1.414-1.414Zm-.023-.004c-.547-.766-1.286-1.318-2.232-1.391l-.154 1.994c.181.014.438.111.758.56l1.628-1.163Zm-2.157-1.382c-1.044-.16-1.888.374-2.498 1.15l1.572 1.236c.344-.437.539-.422.622-.41l.304-1.976Zm-2.381 1.025a6.252 6.252 0 0 0-1.317 1.699l1.761.948c.254-.472.554-.855.894-1.16l-1.338-1.487Zm-1.331 1.726a20.098 20.098 0 0 0-.821 1.916l1.872.702a18.09 18.09 0 0 1 .738-1.724l-1.789-.894Zm-.885 2.267v18.135h2V72.38h-2Zm0 18.135c0 1.009.221 1.931.749 2.686.535.764 1.316 1.259 2.251 1.526l.55-1.924c-.582-.166-.939-.43-1.162-.749-.23-.328-.388-.814-.388-1.539h-2Zm3.004 4.213 2.08.585.542-1.926-2.08-.585-.542 1.926Zm1.351-.378V95h2v-.65h-2Zm1-.35h-16.835v2h16.835v-2Zm17.731.285-.499.867.007.004.008.004.484-.875Zm-4.875-5.33-.901.434.005.01.004.01.892-.454Zm.26-18.72.878.478.004-.007-.882-.471Zm5.33-5.59.481.877.006-.004.007-.004-.494-.869Zm11.57-1.43.213-.977-.213.977Zm3.705 1.365-.489.873 1.489.833V64.58h-1Zm-.455-10.465-.858.514.018.03.02.03.82-.574Zm-1.755-.91-.206.979.009.002.01.001.187-.982Zm-1.235-.26h-1v.811l.794.167.206-.978Zm0-.65-.235-.972-.765.185v.787h1Zm11.83-2.86.633-.774-.385-.315-.483.117.235.972Zm.715.585.999.029.014-.492-.38-.311-.633.774Zm-.26 9.1-1-.029V59.12h1Zm.455 33.93-.881.474.008.015.009.015.864-.504Zm1.69 1.105.316-.949-.031-.01-.031-.008-.254.967Zm.585.195h1v-.72l-.684-.229-.316.949Zm0 .65.064.998.936-.06V95h-1Zm-11.115.715-.971.242.203.81.832-.054-.064-.998Zm-.585-2.34.97-.243-.344-1.376-1.181.787.555.832Zm-4.03 1.885-.3-.954-.008.003.308.951Zm3.835-3.315.581.814.419-.3v-.514h-1Zm0-25.805h1v-.543l-.456-.296-.544.839Zm-10.27 2.08.85.526.004-.007-.854-.519Zm-.13 22.23-.838.547.006.008.832-.555Zm1.625 4.525c-2.405 0-4.532-.528-6.406-1.565l-.968 1.75c2.199 1.217 4.665 1.815 7.374 1.815v-2Zm-6.392-1.557c-1.846-1.06-3.344-2.682-4.482-4.917l-1.783.908c1.289 2.531 3.041 4.463 5.268 5.743l.997-1.734Zm-4.473-4.897c-1.084-2.249-1.655-5.185-1.655-8.861h-2c0 3.864.598 7.124 1.854 9.73l1.801-.87Zm-1.655-8.861c0-3.703.653-6.667 1.893-8.947l-1.757-.956c-1.446 2.66-2.136 5.98-2.136 9.903h2Zm1.897-8.954c1.264-2.365 2.91-4.076 4.929-5.184l-.963-1.754c-2.401 1.319-4.308 3.334-5.73 5.996l1.764.942Zm4.942-5.192c2.056-1.169 4.29-1.754 6.721-1.754v-2c-2.77 0-5.345.671-7.71 2.016l.989 1.738Zm6.721-1.754c1.449 0 2.829.145 4.141.432l.427-1.954a21.323 21.323 0 0 0-4.568-.478v2Zm4.141.432c1.304.285 2.444.708 3.43 1.26l.977-1.744c-1.18-.662-2.51-1.148-3.98-1.47l-.427 1.954Zm4.919.388v-8.45h-2v8.45h2Zm0-8.45c0-.983-.157-1.904-.636-2.589l-1.639 1.148c.128.182.275.605.275 1.441h2Zm-.598-2.53c-.49-.817-1.45-1.192-2.425-1.377l-.374 1.964c.844.161 1.055.393 1.084.443l1.715-1.03Zm-2.406-1.374-1.235-.26-.412 1.957 1.235.26.412-1.957Zm-.441.719v-.65h-2v.65h2Zm-.765.322 11.83-2.86-.47-1.944-11.83 2.86.47 1.944Zm10.961-3.058.715.585 1.267-1.548-.715-.585-1.267 1.548Zm.349-.218-.26 9.1 1.999.058.26-9.1-1.999-.058Zm-.26 9.129v31.785h2V59.12h-2Zm0 31.785c0 .976.169 1.868.574 2.62l1.761-.95c-.202-.374-.335-.913-.335-1.67h-2Zm.591 2.649c.484.83 1.327 1.312 2.299 1.568l.509-1.934c-.674-.178-.958-.432-1.081-.642l-1.727 1.008Zm2.237 1.55.585.195.633-1.898-.585-.195-.633 1.898Zm-.098-.754V95h2v-.65h-2Zm.935-.348-11.115.715.129 1.996 11.115-.715-.129-1.996Zm-10.08 1.47-.585-2.34-1.941.486.585 2.34 1.941-.486Zm-2.11-2.93c-1.082.722-2.337 1.312-3.775 1.764l.599 1.908c1.596-.501 3.027-1.168 4.285-2.007l-1.109-1.664Zm-3.783 1.767c-1.358.439-2.899.666-4.632.666v2c1.906 0 3.659-.25 5.247-.764l-.615-1.902Zm-.862.261c2.033 0 3.904-.61 5.586-1.811l-1.163-1.628c-1.351.966-2.817 1.439-4.423 1.439v2Zm6.005-2.625V66.14h-2v25.805h2Zm-.456-26.644c-1.744-1.13-3.577-1.721-5.484-1.721v2c1.472 0 2.932.45 4.395 1.399l1.089-1.678Zm-5.484-1.721c-2.552 0-4.604 1.517-6.185 4.121l1.709 1.038c1.366-2.25 2.867-3.159 4.476-3.159v-2Zm-6.181 4.114c-1.623 2.626-2.359 6.627-2.359 11.836h2c0-5.104.737-8.643 2.06-10.784l-1.701-1.052Zm-2.359 11.836c0 5.187.686 9.083 2.242 11.467l1.675-1.094c-1.217-1.863-1.917-5.246-1.917-10.373h-2Zm2.248 11.475c1.543 2.315 3.634 3.565 6.227 3.565v-2c-1.828 0-3.334-.83-4.563-2.675l-1.664 1.11Zm31.526 4.19.294-.956-.011-.003-.012-.003-.271.962Zm-4.68-1.82-1-.008-.005.615.547.282.458-.889Zm.065-7.735v-1h-.992l-.008.992 1 .008Zm.65 0 .87-.493-.287-.507h-.583v1Zm2.21 3.9.876-.482-.006-.011-.87.493Zm3.12 3.9-.61.793.017.013.017.012.576-.818Zm9.425-.13.586.81.005-.004-.591-.806Zm.585-7.28-.707.707.707-.707Zm-5.07-2.47-.296.955.01.003.286-.958Zm-2.73-.845.296-.955-.013-.004-.283.959Zm-6.24-3.64-.736.677.736-.677Zm1.105-13.325-.663-.749.663.749Zm14.43-2.405-.256.967.016.004.017.004.223-.975Zm4.355 1.625.998.055.036-.638-.565-.3-.469.883Zm-.39 7.02v1h.946l.052-.944-.998-.056Zm-.65 0-.871.492.287.508h.584v-1Zm-2.275-4.03.871-.492-.005-.007-.866.499Zm-2.47-2.99-.614.79.024.018.025.017.565-.825Zm-8.06 7.345-.625.78.008.007.007.006.61-.793Zm4.94 2.405-.322.947.022.007.022.007.278-.961Zm2.925.845.292-.956-.007-.003-.008-.002-.277.961Zm6.695 3.965-.783.622.008.01.775-.632Zm-1.755 13.585-.605-.797-.006.005.611.792Zm-10.465 1.86c-2.043 0-3.848-.25-5.426-.736l-.588 1.912c1.802.554 3.81.824 6.014.824v-2Zm-5.449-.742a24.023 24.023 0 0 1-4.493-1.747l-.916 1.778c1.495.77 3.118 1.4 4.866 1.893l.543-1.924Zm-3.951-.85.065-7.735-2-.016-.065 7.735 2 .016Zm-.935-6.743h.65v-2h-.65v2Zm-.22-.507 2.21 3.9 1.74-.986-2.21-3.9-1.74.986Zm2.204 3.889c.995 1.81 2.116 3.234 3.386 4.21l1.22-1.585c-.984-.756-1.943-1.932-2.854-3.589l-1.752.964Zm3.42 4.236c1.376.968 3.063 1.417 4.996 1.417v-2c-1.621 0-2.88-.374-3.845-1.053l-1.151 1.636Zm4.996 1.417c2.22 0 4.114-.486 5.591-1.555l-1.173-1.62c-1.036.75-2.478 1.175-4.418 1.175v2Zm5.596-1.559c1.547-1.134 2.359-2.685 2.359-4.576h-2c0 1.23-.488 2.191-1.542 2.964l1.183 1.612Zm2.359-4.576c0-1.663-.539-3.098-1.658-4.217l-1.414 1.414c.701.7 1.072 1.606 1.072 2.803h2Zm-1.658-4.217c-1.096-1.096-2.992-1.976-5.491-2.721l-.572 1.916c2.44.728 3.924 1.495 4.649 2.22l1.414-1.415Zm-5.481-2.718-2.73-.845-.592 1.91 2.73.845.592-1.91Zm-2.743-.85c-2.51-.74-4.419-1.871-5.788-3.358l-1.471 1.355c1.665 1.808 3.916 3.103 6.693 3.922l.566-1.918Zm-5.788-3.358c-1.335-1.449-2.01-3.217-2.01-5.367h-2c0 2.617.841 4.879 2.539 6.722l1.471-1.355Zm-2.01-5.367c0-2.557.991-4.716 3.042-6.531l-1.325-1.498c-2.455 2.172-3.717 4.866-3.717 8.029h2Zm3.042-6.531c2.01-1.777 4.967-2.739 9.023-2.739v-2c-4.351 0-7.85 1.032-10.348 3.241l1.325 1.498Zm9.023-2.739c1.613 0 3.108.186 4.489.552l.512-1.934c-1.566-.414-3.234-.618-5.001-.618v2Zm4.522.56c1.43.327 2.799.837 4.109 1.533l.938-1.766a18.615 18.615 0 0 0-4.601-1.717l-.446 1.95Zm3.579.595-.39 7.02 1.997.11.39-7.02-1.997-.11Zm.609 6.075h-.65v2h.65v-2Zm.221.508-2.275-4.03-1.742.984 2.275 4.03 1.742-.984Zm-2.28-4.037c-.855-1.485-1.769-2.63-2.771-3.316l-1.13 1.65c.644.44 1.377 1.29 2.168 2.664l1.733-.998Zm-2.722-3.28c-1.035-.805-2.491-1.121-4.189-1.121v2c1.509 0 2.436.291 2.961.7l1.228-1.58Zm-4.189-1.121c-1.672 0-3.243.47-4.695 1.39l1.07 1.69c1.147-.727 2.35-1.08 3.625-1.08v-2Zm-4.695 1.39c-1.585 1.004-2.415 2.49-2.415 4.355h2c0-1.168.469-2.022 1.485-2.665l-1.07-1.69Zm-2.415 4.355c0 1.755.663 3.221 2 4.29l1.25-1.56c-.83-.665-1.25-1.539-1.25-2.73h-2Zm2.015 4.303c1.25.961 3.013 1.806 5.228 2.559l.644-1.894c-2.118-.72-3.649-1.479-4.652-2.25l-1.22 1.585Zm5.272 2.573 2.925.845.555-1.922-2.925-.845-.555 1.922Zm2.911.84c3.019.923 5.036 2.162 6.204 3.631l1.566-1.244c-1.519-1.91-3.965-3.315-7.186-4.3l-.584 1.913Zm6.212 3.641c1.183 1.45 1.79 3.213 1.79 5.348h2c0-2.546-.736-4.769-2.24-6.612l-1.55 1.264Zm1.79 5.348c0 2.852-1.111 5.091-3.375 6.808l1.209 1.594c2.764-2.097 4.166-4.927 4.166-8.402h-2Zm-3.381 6.813c-2.232 1.724-5.474 2.652-9.854 2.652v2c4.633 0 8.368-.978 11.076-3.068l-1.222-1.584Z" />
      <path
        fillRule="evenodd"
        clipRule="evenodd"
        d="M96.5 29C73.028 29 54 48.028 54 71.5a42.321 42.321 0 0 0 9.346 26.593c3.559-.552 6.765-1.667 9.617-3.344 4.012-2.15 7.889-5.53 11.63-10.144l-4.316-5.725c-2.415-3.55-3.813-7.129-4.194-10.736-.198-3.656.469-6.811 2.002-9.467 2.334-4.042 5.595-6.623 9.784-7.746 4.256-1.238 8.52-.624 12.792 1.843 4.388 2.533 7.01 6.126 7.866 10.777 1.038 4.602-.11 9.79-3.443 15.563-3.667 6.351-8.262 11.242-13.784 14.674-5.474 3.614-11.083 5.996-16.826 7.144-2.639.574-5.166.927-7.58 1.059C74.545 109.424 84.988 114 96.5 114c23.472 0 42.5-19.028 42.5-42.5S119.972 29 96.5 29Z"
      />
    </g>
    <defs>
      <clipPath id="a">
        <path fill="#fff" d="M0 0h540v138H0z" />
      </clipPath>
    </defs>
  </svg>